<svg version="1.1" baseProfile="full" xmlns="http://www.w3.org/2000/svg" width="512" height="512">
<rect x="1" y="1" width="256" height="1" stroke-width=".3px" stroke="white" fill="#BBB"> </rect>
<rect x="1" y="2" width="256" height="1" stroke-width=".3px" stroke="white" fill="rgb(71.6613750119391, 3.4648437500000004, 57.4453125)"> </rect>
<rect x="1" y="3" width="256" height="2" stroke-width=".3px" stroke="white" fill="rgb(96.69504532314825, 3.929687500000001, 57.89062499999999)"> </rect>
<rect x="1" y="5" width="256" height="4" stroke-width=".3px" stroke="white" fill="rgb(128.53064934331093, 4.859375000000001, 58.781249999999986)"> </rect>
<rect x="1" y="9" width="256" height="8" stroke-width=".3px" stroke="white" fill="rgb(155.0495160155846, 6.718750000000001, 60.562499999999986)"> </rect>
<rect x="1" y="17" width="256" height="16" stroke-width=".3px" stroke="white" fill="rgb(169.8814640709346, 10.437500000000002, 64.12499999999999)"> </rect>
<rect x="1" y="33" width="256" height="32" stroke-width=".3px" stroke="white" fill="rgb(177.05966011128277, 17.875000000000004, 71.24999999999999)"> </rect>
<rect x="1" y="65" width="256" height="64" stroke-width=".3px" stroke="white" fill="rgb(180.50090735411695, 32.75, 85.5)"> </rect>
<rect x="1" y="129" width="256" height="128" stroke-width=".3px" stroke="white" fill="rgb(182.1753252391801, 62.5, 113.99999999999999)"> </rect>
<rect x="257" y="1" width="128" height="2" stroke-width=".3px" stroke="white" fill="#BBB"> </rect>
<rect x="257" y="3" width="128" height="2" stroke-width=".3px" stroke="white" fill="rgb(71.6613750119391, 3.4648437500000004, 57.4453125)"> </rect>
<rect x="257" y="5" width="128" height="4" stroke-width=".3px" stroke="white" fill="rgb(96.69504532314825, 3.929687500000001, 57.89062499999999)"> </rect>
<rect x="257" y="9" width="128" height="8" stroke-width=".3px" stroke="white" fill="rgb(128.53064934331093, 4.859375000000001, 58.781249999999986)"> </rect>
<rect x="257" y="17" width="128" height="16" stroke-width=".3px" stroke="white" fill="rgb(155.0495160155846, 6.718750000000001, 60.562499999999986)"> </rect>
<rect x="257" y="33" width="128" height="32" stroke-width=".3px" stroke="white" fill="rgb(169.8814640709346, 10.437500000000002, 64.12499999999999)"> </rect>
<rect x="257" y="65" width="128" height="64" stroke-width=".3px" stroke="white" fill="rgb(177.05966011128277, 17.875000000000004, 71.24999999999999)"> </rect>
<rect x="385" y="1" width="64" height="4" stroke-width=".3px" stroke="white" fill="#BBB"> </rect>
<rect x="385" y="5" width="64" height="4" stroke-width=".3px" stroke="white" fill="rgb(71.6613750119391, 3.4648437500000004, 57.4453125)"> </rect>
<rect x="385" y="9" width="64" height="8" stroke-width=".3px" stroke="white" fill="rgb(96.69504532314825, 3.929687500000001, 57.89062499999999)"> </rect>
<rect x="385" y="17" width="64" height="16" stroke-width=".3px" stroke="white" fill="rgb(128.53064934331093, 4.859375000000001, 58.781249999999986)"> </rect>
<rect x="385" y="33" width="64" height="32" stroke-width=".3px" stroke="white" fill="rgb(155.0495160155846, 6.718750000000001, 60.562499999999986)"> </rect>
<rect x="449" y="1" width="32" height="8" stroke-width=".3px" stroke="white" fill="#BBB"> </rect>
<rect x="449" y="9" width="32" height="8" stroke-width=".3px" stroke="white" fill="rgb(71.6613750119391, 3.4648437500000004, 57.4453125)"> </rect>
<rect x="449" y="17" width="32" height="16" stroke-width=".3px" stroke="white" fill="rgb(96.69504532314825, 3.929687500000001, 57.89062499999999)"> </rect>
<rect x="481" y="1" width="16" height="16" stroke-width=".3px" stroke="white" fill="#BBB"> </rect>
<rect x="497" y="1" width="16" height="16" stroke-width=".3px" stroke="white" fill="#BBB"> </rect>
<rect x="481" y="17" width="16" height="16" stroke-width=".3px" stroke="white" fill="rgb(71.6613750119391, 3.4648437500000004, 57.4453125)"> </rect>
<rect x="497" y="17" width="16" height="16" stroke-width=".3px" stroke="white" fill="#BBB"> </rect>
<rect x="449" y="33" width="32" height="32" stroke-width=".3px" stroke="white" fill="rgb(128.53064934331093, 4.859375000000001, 58.781249999999986)"> </rect>
<rect x="481" y="33" width="16" height="32" stroke-width=".3px" stroke="white" fill="rgb(96.69504532314825, 3.929687500000001, 57.89062499999999)"> </rect>
<rect x="497" y="33" width="8" height="32" stroke-width=".3px" stroke="white" fill="rgb(71.6613750119391, 3.4648437500000004, 57.4453125)"> </rect>
<rect x="505" y="33" width="8" height="32" stroke-width=".3px" stroke="white" fill="#BBB"> </rect>
<rect x="385" y="65" width="64" height="64" stroke-width=".3px" stroke="white" fill="rgb(169.8814640709346, 10.437500000000002, 64.12499999999999)"> </rect>
<rect x="449" y="65" width="32" height="64" stroke-width=".3px" stroke="white" fill="rgb(155.0495160155846, 6.718750000000001, 60.562499999999986)"> </rect>
<rect x="481" y="65" width="16" height="64" stroke-width=".3px" stroke="white" fill="rgb(128.53064934331093, 4.859375000000001, 58.781249999999986)"> </rect>
<rect x="497" y="65" width="8" height="64" stroke-width=".3px" stroke="white" fill="rgb(96.69504532314825, 3.929687500000001, 57.89062499999999)"> </rect>
<rect x="505" y="65" width="4" height="64" stroke-width=".3px" stroke="white" fill="rgb(71.6613750119391, 3.4648437500000004, 57.4453125)"> </rect>
<rect x="509" y="65" width="4" height="64" stroke-width=".3px" stroke="white" fill="#BBB"> </rect>
<rect x="257" y="129" width="128" height="128" stroke-width=".3px" stroke="white" fill="rgb(180.50090735411695, 32.75, 85.5)"> </rect>
<rect x="385" y="129" width="64" height="128" stroke-width=".3px" stroke="white" fill="rgb(177.05966011128277, 17.875000000000004, 71.24999999999999)"> </rect>
<rect x="449" y="129" width="32" height="128" stroke-width=".3px" stroke="white" fill="rgb(169.8814640709346, 10.437500000000002, 64.12499999999999)"> </rect>
<rect x="481" y="129" width="16" height="128" stroke-width=".3px" stroke="white" fill="rgb(155.0495160155846, 6.718750000000001, 60.562499999999986)"> </rect>
<rect x="497" y="129" width="8" height="128" stroke-width=".3px" stroke="white" fill="rgb(128.53064934331093, 4.859375000000001, 58.781249999999986)"> </rect>
<rect x="505" y="129" width="4" height="128" stroke-width=".3px" stroke="white" fill="rgb(96.69504532314825, 3.929687500000001, 57.89062499999999)"> </rect>
<rect x="509" y="129" width="2" height="128" stroke-width=".3px" stroke="white" fill="rgb(71.6613750119391, 3.4648437500000004, 57.4453125)"> </rect>
<rect x="511" y="129" width="2" height="128" stroke-width=".3px" stroke="white" fill="#BBB"> </rect>
<rect x="1" y="257" width="256" height="256" stroke-width=".3px" stroke="white" fill="rgb(183, 122, 171)"> </rect>
<rect x="257" y="257" width="128" height="256" stroke-width=".3px" stroke="white" fill="rgb(182.1753252391801, 62.5, 113.99999999999999)"> </rect>
<rect x="385" y="257" width="64" height="256" stroke-width=".3px" stroke="white" fill="rgb(180.50090735411695, 32.75, 85.5)"> </rect>
<rect x="449" y="257" width="32" height="256" stroke-width=".3px" stroke="white" fill="rgb(177.05966011128277, 17.875000000000004, 71.24999999999999)"> </rect>
<rect x="481" y="257" width="16" height="256" stroke-width=".3px" stroke="white" fill="rgb(169.8814640709346, 10.437500000000002, 64.12499999999999)"> </rect>
<rect x="497" y="257" width="8" height="256" stroke-width=".3px" stroke="white" fill="rgb(155.0495160155846, 6.718750000000001, 60.562499999999986)"> </rect>
<rect x="505" y="257" width="4" height="256" stroke-width=".3px" stroke="white" fill="rgb(128.53064934331093, 4.859375000000001, 58.781249999999986)"> </rect>
<rect x="509" y="257" width="2" height="256" stroke-width=".3px" stroke="white" fill="rgb(96.69504532314825, 3.929687500000001, 57.89062499999999)"> </rect>
<rect x="511" y="257" width="1" height="256" stroke-width=".3px" stroke="white" fill="rgb(71.6613750119391, 3.4648437500000004, 57.4453125)"> </rect>
<rect x="512" y="257" width="1" height="256" stroke-width=".3px" stroke="white" fill="#BBB"> </rect>
</svg> 
