<svg version="1.1" baseProfile="full" xmlns="http://www.w3.org/2000/svg"><rect x="1" y="1" width="256" height="256" stroke-width=".3px" stroke="white" fill="#BBB"></rect><rect x="257" y="1" width="256" height="256" stroke-width=".3px" stroke="white" fill="rgb(40.41213795462724, 3.029052734375, 57.02783203124999)"></rect><rect x="1" y="257" width="256" height="256" stroke-width=".3px" stroke="white" fill="#BBB"></rect><rect x="257" y="257" width="128" height="128" stroke-width=".3px" stroke="white" fill="#BBB"></rect><rect x="385" y="257" width="128" height="128" stroke-width=".3px" stroke="white" fill="rgb(40.41213795462724, 3.029052734375, 57.02783203124999)"></rect><rect x="257" y="385" width="128" height="128" stroke-width=".3px" stroke="white" fill="#BBB"></rect><rect x="385" y="385" width="64" height="64" stroke-width=".3px" stroke="white" fill="#BBB"></rect><rect x="449" y="385" width="64" height="64" stroke-width=".3px" stroke="white" fill="rgb(40.41213795462724, 3.029052734375, 57.02783203124999)"></rect><rect x="385" y="449" width="64" height="64" stroke-width=".3px" stroke="white" fill="#BBB"></rect><rect x="449" y="449" width="32" height="32" stroke-width=".3px" stroke="white" fill="#BBB"></rect><rect x="481" y="449" width="32" height="32" stroke-width=".3px" stroke="white" fill="rgb(40.41213795462724, 3.029052734375, 57.02783203124999)"></rect><rect x="449" y="481" width="32" height="32" stroke-width=".3px" stroke="white" fill="#BBB"></rect><rect x="481" y="481" width="16" height="16" stroke-width=".3px" stroke="white" fill="#BBB"></rect><rect x="497" y="481" width="16" height="16" stroke-width=".3px" stroke="white" fill="rgb(40.41213795462724, 3.029052734375, 57.02783203124999)"></rect><rect x="481" y="497" width="16" height="16" stroke-width=".3px" stroke="white" fill="#BBB"></rect><rect x="497" y="497" width="8" height="8" stroke-width=".3px" stroke="white" fill="#BBB"></rect><rect x="505" y="497" width="8" height="8" stroke-width=".3px" stroke="white" fill="rgb(40.41213795462724, 3.029052734375, 57.02783203124999)"></rect><rect x="497" y="505" width="8" height="8" stroke-width=".3px" stroke="white" fill="#BBB"></rect><rect x="505" y="505" width="4" height="4" stroke-width=".3px" stroke="white" fill="#BBB"></rect><rect x="509" y="505" width="4" height="4" stroke-width=".3px" stroke="white" fill="rgb(40.41213795462724, 3.029052734375, 57.02783203124999)"></rect><rect x="505" y="509" width="4" height="4" stroke-width=".3px" stroke="white" fill="#BBB"></rect><rect x="509" y="509" width="2" height="2" stroke-width=".3px" stroke="white" fill="#BBB"></rect><rect x="511" y="509" width="2" height="2" stroke-width=".3px" stroke="white" fill="rgb(40.41213795462724, 3.029052734375, 57.02783203124999)"></rect><rect x="509" y="511" width="2" height="2" stroke-width=".3px" stroke="white" fill="#BBB"></rect><rect x="511" y="511" width="2" height="2" stroke-width=".3px" stroke="white" fill="#BBB"></rect></svg>